<?xml version="1.0" encoding="utf-8"?>
<!-- Generator: Adobe Illustrator 24.3.0, SVG Export Plug-In . SVG Version: 6.00 Build 0)  -->
<svg version="1.1" id="Layer_1" xmlns="http://www.w3.org/2000/svg" xmlns:xlink="http://www.w3.org/1999/xlink" x="0px" y="0px"
	 viewBox="0 0 50 50" style="enable-background:new 0 0 50 50;" xml:space="preserve">
<style type="text/css">
	.st0{fill:#220B5E;}
	.st1{fill:#513779;}
</style>
<g>
	<path class="st0" d="M20,43.8c0,3.4-3.5,6.1-7.8,6.2h-4c-4.5,0-8.1-2.8-8.2-6.2l0,0V6.2C0,2.7,3.7,0,8.1,0l0,0h4
		c4.4,0.1,7.8,2.9,7.8,6.2v7.5c0,1.6-0.9,2.4-1.7,2.7l-4.7,1.7v-11c0-1.5-1.6-2.7-3.5-2.7S6.5,5.6,6.5,7.1V43c0,1.5,1.6,2.7,3.5,2.7
		s3.5-1.2,3.5-2.7l0,0v-6.6c0-1.6,0.9-2.4,1.7-2.7c0.5-0.2,3.1-1.1,4.7-1.6L20,43.8z"/>
	<path class="st1" d="M41.9,0.4c4.4,0,8,2.7,8.1,6.2v36.8c0,3.4-3.6,6.2-8.1,6.2H29.4V0.5L41.9,0.4L41.9,0.4z M43.6,8
		c0-1.8-1.6-2.5-3.4-2.5h-4.3v39.1h4.3c1.8,0,3.4-0.7,3.4-2.6V8z"/>
</g>
</svg>
