<svg id="Layer_1" data-name="Layer 1" xmlns="http://www.w3.org/2000/svg" viewBox="0 0 146.62 189.66"><defs><style>.cls-1{fill:#220b5e;}.cls-2{fill:#513779;}</style></defs><path class="cls-1" d="M465.13,351.19a23.71,23.71,0,0,1-22.85,23.64H430.6a23.75,23.75,0,0,1-23.91-23.64V208.81a23.75,23.75,0,0,1,23.91-23.64h11.68a23.54,23.54,0,0,1,22.85,23.64v28.42c0,6.11-2.66,9-5.05,10.1l-13.81,6.37V212a10.23,10.23,0,0,0-20.46,0V347.73a10.23,10.23,0,1,0,20.46,0v-25c0-6.11,2.65-9,5-10.36,1.6-.8,9-4,13.82-6.11Z" transform="translate(-406.69 -185.17)"/><path class="cls-2" d="M529.67,187a23.63,23.63,0,0,1,23.64,23.38V349.59A23.63,23.63,0,0,1,529.67,373H492.75V187Zm4.78,28.69c0-6.91-4.78-9.56-10.09-9.56H511.87v148h12.49c5.31,0,10.09-2.66,10.09-9.83Z" transform="translate(-406.69 -185.17)"/></svg>